<svg width="160" height="60" viewBox="0 0 160 60" fill="none" xmlns="http://www.w3.org/2000/svg">
<rect x="0.5" y="0.5" width="159" height="59" rx="5.5" stroke="#1B1B1B"/>
<g opacity="0.3" clip-path="url(#clip0_205_97)">
<path d="M59.6152 23.6764L64.1922 23.6761C68.1118 23.6758 70.5901 26.2044 70.5904 30.1492C70.5906 34.094 68.1253 36.6229 64.1931 36.6232L59.6161 36.6235L59.6152 23.6764ZM64.0918 34.2588C66.5573 34.2587 67.9101 32.6781 67.9099 30.162C67.9098 27.6333 66.5568 26.0529 64.0913 26.0531L62.2959 26.0532L62.2964 34.2589L64.0918 34.2588Z" fill="white"/>
<path d="M77.5315 29.7821C77.1775 29.5671 76.7097 29.466 76.2166 29.4661C75.3315 29.4661 74.6109 29.934 74.4213 30.7938L74.4217 36.6351L71.8171 36.6353L71.8164 27.2031L74.4337 27.203L74.4337 28.1259C74.8383 27.4558 75.6095 26.9879 76.5451 26.9879C76.9877 26.9878 77.3923 27.0763 77.5314 27.1522L77.5315 29.7821Z" fill="white"/>
<rect x="9.49976" y="2.5" width="159" height="59" rx="5.5" stroke="#1B1B1B"/>
<path d="M82.754 36.8495C80.0103 36.8497 78.1263 34.8269 78.1261 31.9315C78.1259 29.0234 80.0096 26.9877 82.7533 26.9875C85.497 26.9873 87.3684 29.0101 87.3686 31.9308C87.3688 34.8262 85.4977 36.8494 82.754 36.8495ZM82.7535 29.2128C81.4385 29.2128 80.7306 30.3508 80.7307 31.9313C80.7308 33.4865 81.4515 34.637 82.7538 34.6369C84.0561 34.6368 84.7767 33.4988 84.7766 31.931C84.7765 30.3506 84.0558 29.2127 82.7535 29.2128Z" fill="white"/>
<path d="M91.1115 40.1237L88.4943 40.1239L88.4934 27.202L91.1107 27.2018L91.1107 27.9858C91.5279 27.48 92.4635 26.9995 93.475 26.9994C96.2187 26.9992 97.774 29.275 97.7742 31.9428C97.7744 34.598 96.2194 36.8613 93.4757 36.8615C92.4642 36.8615 91.5285 36.3811 91.1112 35.8754L91.1115 40.1237ZM91.1111 33.4731C91.4272 34.1306 92.1227 34.573 92.8813 34.573C94.2974 34.5729 95.1444 33.4349 95.1443 31.9303C95.1442 30.4131 94.297 29.2752 92.8809 29.2753C92.097 29.2753 91.4269 29.7432 91.1109 30.3754L91.1111 33.4731Z" fill="white"/>
<path d="M101.542 36.6333L98.8998 36.6335L98.8989 22.9151L101.541 22.9149L101.542 27.9851C101.959 27.4793 102.895 26.9988 103.906 26.9987C106.65 26.9985 108.192 29.2363 108.193 31.9421C108.193 34.6478 106.65 36.8606 103.907 36.8608C102.895 36.8608 101.96 36.3804 101.542 35.8747L101.542 36.6333ZM101.542 33.4724C101.833 34.1299 102.528 34.5723 103.312 34.5723C104.728 34.5722 105.575 33.4342 105.575 31.9296C105.575 30.4124 104.728 29.2745 103.312 29.2746C102.553 29.2746 101.833 29.7425 101.542 30.3747L101.542 33.4724Z" fill="white"/>
<path d="M113.756 36.8727C111.013 36.8729 109.128 34.8501 109.128 31.9547C109.128 29.0466 111.012 27.0108 113.756 27.0107C116.499 27.0105 118.371 29.0333 118.371 31.954C118.371 34.8494 116.487 36.8725 113.756 36.8727ZM113.756 29.2359C112.441 29.236 111.733 30.374 111.733 31.9545C111.733 33.5096 112.454 34.6602 113.756 34.6601C115.058 34.66 115.779 33.522 115.779 31.9542C115.779 30.3737 115.058 29.2359 113.756 29.2359Z" fill="white"/>
<path d="M124.25 31.764L127.689 36.6442L124.794 36.6444L122.771 33.6859L120.723 36.6447L117.979 36.6449L121.38 31.8274L118.181 27.2127L121.076 27.2125L122.897 29.8928L124.743 27.2122L127.487 27.212L124.25 31.764Z" fill="white"/>
<path d="M39.9414 19.2398L33.1268 23.6276L37.8431 27.433L44.6957 23.1969L39.9414 19.2398Z" fill="white"/>
<path d="M33.1272 31.1506L39.9424 35.626L44.6962 31.6682L37.843 27.433L33.1272 31.1506Z" fill="white"/>
<path d="M44.6963 31.6682L49.4506 35.6253L56.24 31.1996L51.5363 27.4321L44.6963 31.6682Z" fill="white"/>
<path d="M56.2393 23.664L49.4493 19.2391L44.6956 23.1969L51.5361 27.4321L56.2393 23.664Z" fill="white"/>
<path d="M44.709 32.5153L39.9426 36.4731L37.8942 35.1456L37.8943 36.6376L44.7095 40.7211L51.5116 36.6367L51.5115 35.1447L49.4759 36.4725L44.709 32.5153Z" fill="white"/>
</g>
<defs>
<clipPath id="clip0_205_97">
<rect width="94.8276" height="22" fill="white" transform="translate(33 19)"/>
</clipPath>
</defs>
</svg>
