<svg width="160" height="60" viewBox="0 0 160 60" fill="none" xmlns="http://www.w3.org/2000/svg">
<rect x="0.5" y="0.5" width="159" height="59" rx="5.5" stroke="#1B1B1B"/>
<g opacity="0.3">
<path d="M42.1296 26.8305L43.5226 26.8304C44.3933 26.8303 45.2988 27.0044 45.2988 28.0144C45.2989 28.885 44.7417 29.5119 43.1049 29.512L41.5726 29.5121L42.1296 26.8305ZM36.0009 36.6866L40.0407 36.6864L40.8763 32.6813L43.6275 32.6811C47.1101 32.6809 49.3736 30.3822 49.3735 27.7006C49.3733 24.7753 47.806 23.4172 45.3682 23.4173L38.7861 23.4178L36.0009 36.6866Z" fill="white"/>
<path d="M54.3539 27.9789L54.8418 31.9491L52.2995 31.9492L54.3539 27.9789ZM45.6132 36.686L49.7923 36.6857L50.8021 34.8051L55.1206 34.8048L55.3296 36.6854L59.3346 36.6851L57.3138 23.4165L53.274 23.4168L45.6132 36.686Z" fill="white"/>
<path d="M61.0406 31.8093L58.1843 23.4165L62.2938 23.4162L63.5479 28.3614L66.7863 23.4159L71.5923 23.4156L65.1153 31.7742L64.1056 36.6848L60.031 36.685L61.0406 31.8093Z" fill="white"/>
<path d="M81.3441 31.6338C81.1004 32.992 80.0559 36.997 74.5185 36.9974C70.6529 36.9977 68.8069 34.4903 68.8067 30.9381C68.8064 26.6545 71.4878 23.0672 76.0151 23.0669C78.9753 23.0667 81.6222 24.3551 81.6921 28.3253L77.8264 28.3255C77.8612 27.0718 77.2691 26.3753 76.0154 26.3754C73.7517 26.3755 72.916 28.9876 72.9161 30.8682C72.9162 31.9826 73.1949 33.6542 75.0755 33.6541C76.3641 33.654 77.0954 32.7833 77.3391 31.5992L81.3441 31.6338Z" fill="white"/>
<path d="M83.7117 23.4148L87.8212 23.4145L86.8463 28.0116L90.5727 28.0113L91.5475 23.4142L95.657 23.414L92.8718 36.6828L88.7972 36.6831L89.8764 31.4243L86.1501 31.4246L85.036 36.6834L80.9613 36.6836L83.7117 23.4148Z" fill="white"/>
<path d="M96.736 23.4139L107.706 23.4132L107.01 26.8261L100.114 26.8266L99.7662 28.4635L106.174 28.463L105.513 31.6322L99.1047 31.6327L98.7566 33.2695L105.791 33.269L105.095 36.682L93.9508 36.6828L96.736 23.4139Z" fill="white"/>
<path d="M110.528 29.6468L107.463 23.4131L111.921 23.4128L113.21 26.8605L115.856 23.4126L120.697 23.4123L115.16 29.6465L118.399 36.6811L113.802 36.6814L112.339 32.99L109.24 36.6817L104.225 36.6821L110.528 29.6468Z" fill="white"/>
<path d="M121.219 24.0043C121.219 23.5167 121.567 23.1336 122.054 23.1336C122.507 23.1335 122.89 23.5166 122.89 24.0042C122.89 24.4917 122.542 24.8748 122.055 24.8749C121.602 24.8749 121.219 24.4918 121.219 24.0043ZM121.045 24.0043C121.045 24.5963 121.497 25.0142 122.055 25.0142C122.612 25.0141 123.064 24.5962 123.064 24.0041C123.064 23.4469 122.612 22.9942 122.054 22.9943C121.497 22.9943 121.044 23.4471 121.045 24.0043ZM121.671 24.5963L121.846 24.5963L121.846 24.1087L122.02 24.1087L122.333 24.6311L122.542 24.631L122.194 24.1087C122.368 24.1087 122.507 24.0042 122.507 23.7952C122.507 23.5514 122.368 23.447 122.089 23.447L121.671 23.447L121.671 24.5963ZM121.845 23.5863L122.089 23.5863C122.229 23.5863 122.333 23.6211 122.333 23.7604C122.333 23.9345 122.194 23.9694 122.02 23.9694L121.845 23.9694L121.845 23.5863Z" fill="white"/>
</g>
</svg>
