<svg width="160" height="60" viewBox="0 0 160 60" fill="none" xmlns="http://www.w3.org/2000/svg">
<rect x="0.5" y="0.5" width="159" height="59" rx="5.5" stroke="#1B1B1B"/>
<g opacity="0.3">
<path fill-rule="evenodd" clip-rule="evenodd" d="M110.081 29.9132C110.081 25.6409 108.011 22.2698 104.056 22.2701C100.084 22.2704 97.6809 25.6417 97.6812 29.8807C97.6815 34.904 100.519 37.4406 104.591 37.4403C106.577 37.4402 108.079 36.9894 109.214 36.3552L109.213 33.0174C108.079 33.5849 106.777 33.9355 105.125 33.9356C103.506 33.9357 102.071 33.3684 101.887 31.3991L110.048 31.3985C110.048 31.1816 110.081 30.3137 110.081 29.9132ZM101.837 28.3283C101.836 26.4425 102.988 25.658 104.039 25.6579C105.057 25.6579 106.142 26.4422 106.142 28.328L101.837 28.3283Z" fill="white"/>
<path fill-rule="evenodd" clip-rule="evenodd" d="M91.2384 22.2709C89.6029 22.271 88.5515 23.0388 87.9675 23.5729L87.7504 22.5382L84.0789 22.5384L84.0802 41.9977L88.2524 41.1129L88.2687 36.3899C88.8695 36.8238 89.7541 37.4412 91.2227 37.4411C94.21 37.4409 96.9302 35.0376 96.9298 29.7472C96.9128 24.9074 94.159 22.2707 91.2384 22.2709ZM90.2378 33.7696C89.2532 33.7697 88.6691 33.4193 88.2685 32.9854L88.2514 26.7938C88.6853 26.3098 89.286 25.976 90.2373 25.9759C91.756 25.9758 92.8075 27.678 92.8077 29.8643C92.8078 32.1006 91.7732 33.7695 90.2378 33.7696Z" fill="white"/>
<path fill-rule="evenodd" clip-rule="evenodd" d="M78.3379 21.2872L82.5268 20.3857L82.5266 16.9978L78.3377 17.8826L78.3379 21.2872Z" fill="white"/>
<path d="M82.5271 22.5552L78.3381 22.5555L78.3391 37.1583L82.528 37.158L82.5271 22.5552Z" fill="white"/>
<path fill-rule="evenodd" clip-rule="evenodd" d="M73.849 23.7908L73.5819 22.5558L69.9771 22.556L69.978 37.1588L74.1503 37.1586L74.1496 27.262C75.1342 25.9769 76.8031 26.2105 77.3204 26.394L77.3202 22.5555C76.7861 22.3553 74.8335 21.9883 73.849 23.7908Z" fill="white"/>
<path fill-rule="evenodd" clip-rule="evenodd" d="M65.5043 18.9349L61.4323 19.803L61.4165 33.1708C61.4166 35.6407 63.2692 37.4597 65.7392 37.4595C67.1077 37.4595 68.109 37.2091 68.6597 36.9086L68.6595 33.5208C68.1255 33.7378 65.4887 34.5056 65.4885 32.0357L65.4881 26.1111L68.659 26.1109L68.6588 22.5561L65.4879 22.5564L65.5043 18.9349Z" fill="white"/>
<path fill-rule="evenodd" clip-rule="evenodd" d="M54.2231 26.7961C54.223 26.1452 54.7571 25.8949 55.6416 25.8948C56.9099 25.8947 58.5121 26.2785 59.7805 26.9626L59.7802 23.0407C58.395 22.4901 57.0265 22.2732 55.6413 22.2733C52.2535 22.2735 50.0006 24.0427 50.0008 26.9966C50.0011 31.6028 56.3429 30.868 56.343 32.854C56.343 33.6217 55.6755 33.8721 54.7409 33.8722C53.3557 33.8723 51.5867 33.305 50.1848 32.5374L50.185 36.5093C51.7371 37.1768 53.3059 37.4604 54.7412 37.4603C58.2125 37.46 60.5989 35.7409 60.5987 32.7536C60.5816 27.7803 54.2232 28.6653 54.2231 26.7961Z" fill="white"/>
</g>
</svg>
